<svg xmlns="http://www.w3.org/2000/svg" xmlns:xlink="http://www.w3.org/1999/xlink" viewBox="0 0 1015.08 751.78"><defs><style>.cls-1{isolation:isolate;}.cls-2{fill:#0a0203;}.cls-3{fill:url(#linear-gradient);}.cls-4{fill:url(#linear-gradient-2);}.cls-5,.cls-9{fill:none;}.cls-6{fill:url(#linear-gradient-3);}.cls-7{fill:url(#linear-gradient-4);}.cls-8{fill:#7ed3f7;}.cls-9{stroke:#fff;stroke-miterlimit:10;stroke-width:3.78px;}.cls-10{fill:#fff;}.cls-11{fill:url(#linear-gradient-5);}.cls-12{fill:#154271;}.cls-13{opacity:0.5;}.cls-13,.cls-25{mix-blend-mode:lighten;}.cls-14{fill:#00aeef;}.cls-15{fill:url(#linear-gradient-6);}.cls-16{fill:url(#linear-gradient-7);}.cls-17{fill:url(#linear-gradient-8);}.cls-18{fill:#44c8f5;}.cls-19{fill:url(#linear-gradient-9);}.cls-20{fill:url(#linear-gradient-10);}.cls-21{fill:url(#linear-gradient-11);}.cls-22{fill:#abe1fa;}.cls-23{fill:url(#linear-gradient-12);}.cls-24{fill:#00b3f0;}.cls-26{opacity:0.25;mix-blend-mode:color-burn;}.cls-27{fill:#231f20;}.cls-28{fill:#7bd3f7;}.cls-29{fill:#009bdf;}.cls-30{fill:#007ec6;}.cls-31{fill:#0086cc;}.cls-32{fill:#07b;}.cls-33{fill:url(#linear-gradient-13);}.cls-34{fill:#20c4f4;}.cls-35{fill:#c40075;}.cls-36{fill:url(#linear-gradient-14);}.cls-37{fill:#ee3d96;}.cls-38{fill:url(#linear-gradient-15);}.cls-39{fill:url(#linear-gradient-16);}.cls-40{fill:url(#linear-gradient-17);}.cls-41{fill:#fde9f1;}.cls-42{fill:#ee4d9b;}.cls-43{fill:#f173ac;}.cls-44{fill:url(#linear-gradient-18);}.cls-45{fill:url(#linear-gradient-19);}.cls-46{fill:#f389b8;}.cls-47{fill:url(#linear-gradient-20);}.cls-48{fill:#f067a6;}.cls-49{fill:#f49ac1;}.cls-50{fill:#fad5e5;}.cls-51{fill:#f8c1d9;}.cls-52{fill:url(#linear-gradient-21);}.cls-53{fill:#ec008c;}.cls-54{fill:#f49cc3;}.cls-55{fill:url(#linear-gradient-22);}.cls-56{fill:url(#linear-gradient-23);}.cls-57{fill:url(#linear-gradient-24);}</style><linearGradient id="linear-gradient" x1="5098.94" y1="1413.18" x2="5205.86" y2="930.42" gradientUnits="userSpaceOnUse"><stop offset="0" stop-color="#005da4"/><stop offset="0.09" stop-color="#006db3"/><stop offset="0.38" stop-color="#009cde"/><stop offset="0.53" stop-color="#00aeef"/><stop offset="0.55" stop-color="#07b0ef"/><stop offset="0.69" stop-color="#33bdf2"/><stop offset="0.82" stop-color="#53c7f4"/><stop offset="0.93" stop-color="#66cdf6"/><stop offset="1" stop-color="#6dcff6"/></linearGradient><linearGradient id="linear-gradient-2" x1="5035.24" y1="1209.76" x2="5039.33" y2="964.03" gradientUnits="userSpaceOnUse"><stop offset="0" stop-color="#00aeef"/><stop offset="0.36" stop-color="#53c8f4"/><stop offset="1" stop-color="#eff9fe"/></linearGradient><linearGradient id="linear-gradient-3" x1="5117.38" y1="932.34" x2="5117.38" y2="697.06" gradientUnits="userSpaceOnUse"><stop offset="0.25" stop-color="#f5a4c7"/><stop offset="0.72" stop-color="#fbd9e7"/><stop offset="1" stop-color="#fef3f7"/></linearGradient><linearGradient id="linear-gradient-4" x1="5125.9" y1="960.92" x2="5125.9" y2="842.46" gradientUnits="userSpaceOnUse"><stop offset="0" stop-color="#ec008c"/><stop offset="0.54" stop-color="#f051a8"/><stop offset="1" stop-color="#f49ac1"/></linearGradient><linearGradient id="linear-gradient-5" x1="4867.17" y1="1245.01" x2="5389.19" y2="1245.01" gradientUnits="userSpaceOnUse"><stop offset="0" stop-color="#0095da"/><stop offset="0.04" stop-color="#0c9bdc"/><stop offset="0.29" stop-color="#5abeec"/><stop offset="0.47" stop-color="#8ad4f5"/><stop offset="0.56" stop-color="#9ddcf9"/><stop offset="0.62" stop-color="#8cd7f8"/><stop offset="0.75" stop-color="#61ccf4"/><stop offset="0.93" stop-color="#1cb9ed"/><stop offset="1" stop-color="#00b1eb"/></linearGradient><linearGradient id="linear-gradient-6" x1="5273.84" y1="1304.32" x2="5273.84" y2="1245.82" gradientUnits="userSpaceOnUse"><stop offset="0" stop-color="#005da4"/><stop offset="0.12" stop-color="#005da4"/><stop offset="0.27" stop-color="#006db3"/><stop offset="0.76" stop-color="#009cde"/><stop offset="1" stop-color="#00aeef"/></linearGradient><linearGradient id="linear-gradient-7" x1="5491.87" y1="1150.33" x2="5554.43" y2="1150.33" gradientUnits="userSpaceOnUse"><stop offset="0" stop-color="#7ed3f7"/><stop offset="0.44" stop-color="#bee9fb"/><stop offset="0.82" stop-color="#edf9fe"/><stop offset="1" stop-color="#fff"/></linearGradient><linearGradient id="linear-gradient-8" x1="4693.29" y1="1042.68" x2="4727.21" y2="1042.68" gradientUnits="userSpaceOnUse"><stop offset="0" stop-color="#b9e5fb"/><stop offset="0.06" stop-color="#bee7fb"/><stop offset="0.69" stop-color="#edf8fe"/><stop offset="1" stop-color="#fff"/></linearGradient><linearGradient id="linear-gradient-9" x1="4725.16" y1="1046.63" x2="4781.39" y2="1046.63" xlink:href="#linear-gradient-8"/><linearGradient id="linear-gradient-10" x1="4822.79" y1="1250.26" x2="4822.79" y2="1201.13" gradientUnits="userSpaceOnUse"><stop offset="0" stop-color="#004f8e"/><stop offset="1" stop-color="#0066b3"/></linearGradient><linearGradient id="linear-gradient-11" x1="4846.29" y1="1089.8" x2="4946.27" y2="1089.8" xlink:href="#linear-gradient-7"/><linearGradient id="linear-gradient-12" x1="4786.23" y1="1072.95" x2="4845.34" y2="1072.95" xlink:href="#linear-gradient-7"/><linearGradient id="linear-gradient-13" x1="5067.69" y1="1084.56" x2="5130.82" y2="1084.56" xlink:href="#linear-gradient-7"/><linearGradient id="linear-gradient-14" x1="5067.83" y1="931.07" x2="5120.85" y2="931.07" gradientUnits="userSpaceOnUse"><stop offset="0" stop-color="#f5a0c5"/><stop offset="0.34" stop-color="#f6abcc"/><stop offset="1" stop-color="#f8bdd7"/></linearGradient><linearGradient id="linear-gradient-15" x1="5048.74" y1="876.46" x2="5111.88" y2="876.46" gradientUnits="userSpaceOnUse"><stop offset="0" stop-color="#f9cbdf"/><stop offset="0.09" stop-color="#f9cde0"/><stop offset="1" stop-color="#fcdfeb"/></linearGradient><linearGradient id="linear-gradient-16" x1="5373.41" y1="875.31" x2="5408.79" y2="875.31" xlink:href="#linear-gradient-15"/><linearGradient id="linear-gradient-17" x1="5326.95" y1="872.38" x2="5360.8" y2="872.38" xlink:href="#linear-gradient-15"/><linearGradient id="linear-gradient-18" x1="5468.31" y1="871.13" x2="5485.16" y2="871.13" xlink:href="#linear-gradient-15"/><linearGradient id="linear-gradient-19" x1="5134.05" y1="925.18" x2="5152.82" y2="925.18" xlink:href="#linear-gradient-14"/><linearGradient id="linear-gradient-20" x1="5156.31" y1="873.13" x2="5207.25" y2="873.13" xlink:href="#linear-gradient-15"/><linearGradient id="linear-gradient-21" x1="4908.45" y1="903.26" x2="4973.72" y2="903.26" xlink:href="#linear-gradient-14"/><linearGradient id="linear-gradient-22" x1="5256.55" y1="930.74" x2="5308.49" y2="930.74" xlink:href="#linear-gradient-14"/><linearGradient id="linear-gradient-23" x1="5237.44" y1="878.17" x2="5307.03" y2="878.17" xlink:href="#linear-gradient-15"/><linearGradient id="linear-gradient-24" x1="5191.83" y1="1076.88" x2="5237.15" y2="1076.88" xlink:href="#linear-gradient-7"/></defs><title>DesertChill SVG</title><g class="cls-1"><g id="Layer_2" data-name="Layer 2"><path class="cls-2" d="M5042.14,672.82A105.1,105.1,0,0,0,5014,676.6a108.21,108.21,0,0,0-26.4,11.38,126.17,126.17,0,0,0-18.08,12.56c-1.79,1.47-3.57,3-5.38,4.59a168.48,168.48,0,0,0-22.67-5.75,164.8,164.8,0,0,0-28.49-2.45c-37.86,0-71,11.13-98.54,33.08-14.24,11.35-25.19,24.27-32.55,38.43A101.75,101.75,0,0,0,4770.43,816a81.44,81.44,0,0,0,5.36,29.86,68.3,68.3,0,0,0,4.26,9,68.7,68.7,0,0,0-24.39,13.72c-14.09,12.21-21.55,28.25-21.55,46.42,0,1.57.07,3.11.16,4.62a140.53,140.53,0,0,0-16.12-3.48s0,0,0,0c-3.93-.6-8-1.06-12.17-1.39h-.07c-4.15-.28-8.34-.44-12.48-.44-30.34,0-56.76,9.62-78.51,28.58a101.56,101.56,0,0,0-25.4,32.83,92.4,92.4,0,0,0-8.83,40,87,87,0,0,0,6.26,33.28,78.81,78.81,0,0,0,19.08,27.63,83.22,83.22,0,0,0,28.64,17.73,98.07,98.07,0,0,0,33.83,5.68h1.14a2.27,2.27,0,0,0,.44,0,128.76,128.76,0,0,0,17.35-1.43,160.47,160.47,0,0,0-5.74,42.31,141.49,141.49,0,0,0,26.77,83.15,6.41,6.41,0,0,0,.39.52,124.83,124.83,0,0,0,47.81,38.79c14.37,6.56,30.88,10.56,49.22,12-1.31,1.91-2.54,3.84-3.67,5.79-10.34,17.82-11.5,34.52-11.25,48.56.32,19.8,9.19,41.57,23.7,58.32,12.95,14.93,36.68,33.27,76.21,36,6.94.47,13.9.72,20.73.72,50.79,0,84.32-13.18,93.37-17.22,13.71-6.13,23.74-16.47,27.56-28.39a33.72,33.72,0,0,0-2.93-27.74,34.65,34.65,0,0,0-14.57-13.69,36.71,36.71,0,0,0-16.22-3.58c-1.3,0-2.57,0-3.81.16a82.94,82.94,0,0,1,12.74-5.22c4.27-1.38,24.11-5.87,100.07-5.87,52.32,0,102.6,2,116,2.75,25.79,1.38,106,5,166.83,5,11.53,0,21.85-.13,30.71-.39,69-2,120.06-22.65,151.81-61.26a97.5,97.5,0,0,0,19.22-37.95,110.07,110.07,0,0,0,2.87-37.45c-2-22.37-10.34-44-21.8-56.35a98.57,98.57,0,0,0-19.11-16.64,57.34,57.34,0,0,0-31.38-9.63c-14.37,0-28.81,5.64-42.89,16.76-1.19.93-2.47,2-3.83,3.07-3,2.46-7.31,5.93-11.87,9.18l31-139.85a22.52,22.52,0,0,0,.52-3.31c.08-.55.17-1.1.23-1.67a28.48,28.48,0,0,0,.62-5.9V987.6a43.17,43.17,0,0,0-5.48-21.39q.58-.44,1.08-.84c.41-.28.78-.58,1.17-.88a57.19,57.19,0,0,0,11.64-11.9,34,34,0,0,0,6.7-19.81,28.17,28.17,0,0,0-8.16-20.1,27.6,27.6,0,0,0-7.72-5.48,33.84,33.84,0,0,0,10.4-9.79c4.83-7,7.15-15.66,7.15-26.52a29.78,29.78,0,0,0-10.24-23,29.33,29.33,0,0,0-2.81-2.13c.07-.55.09-1.08.11-1.62a28.78,28.78,0,0,0-9.05-22.81,1.93,1.93,0,0,1-.21-.17,30.42,30.42,0,0,0-20.69-7.92c-7.34,0-14.7,2.48-23.87,8.09l0,0c-6.1,3.74-13.25,9.15-21.91,16.53-2.68,2.26-5,4.32-7.14,6.13a44.36,44.36,0,0,0-19.92-4.5,49.28,49.28,0,0,0-8,.68,58.21,58.21,0,0,0-7,1.64,50.85,50.85,0,0,0-9,3.28,40,40,0,0,0-22.31-6.3,54.56,54.56,0,0,0-12.13,1.41h-.06a83.9,83.9,0,0,0-10.69,3.23c-.17.06-.32.11-.45.17a90,90,0,0,0-12,5.9c-9.95-7.44-22.07-11.22-36.11-11.22a90.17,90.17,0,0,0-32.43,5.87A88.61,88.61,0,0,0,5229,854a54.57,54.57,0,0,0-9.47-6.53c-10.55-5.77-23.24-8.68-37.67-8.68-15.87,0-29.94,4.53-41.76,13.51a61.81,61.81,0,0,0-5,4.24,48.7,48.7,0,0,0-6.31-6c-10.19-8.13-22.8-12.25-37.46-12.25a90.51,90.51,0,0,0-26.86,4c0-1.25,0-2.51,0-3.77,0-22.07-4-42.05-12-59.44-1.08-2.37-2.25-4.68-3.49-7l1.87,0a44.59,44.59,0,0,0,33.31-14.79,47.92,47.92,0,0,0,13.09-33.21c0-14.47-5.84-27.34-16.92-37.22-10.3-9.2-23.49-14-38.16-14Zm336,260.76c.24-1,.47-1.91.7-2.76a39.58,39.58,0,0,0,12,1.81h1.8v.63a45.26,45.26,0,0,0,4.43,19.86,41.05,41.05,0,0,0,3.17,5.58c-.48.29-1,.59-1.42.9,0,0,0,0-.05,0a116.08,116.08,0,0,0-12,8.82A42,42,0,0,0,5376,954.7c-.92-.78-1.89-1.55-2.88-2.26a55.43,55.43,0,0,0,2.83-9,.49.49,0,0,0,.05-.19l2.12-9.66ZM5089.3,980.12a91.4,91.4,0,0,0,10.52-3.32h0a104.27,104.27,0,0,0,19-9.73,53.81,53.81,0,0,0,6.88,4.93c10.95,6.71,24.48,10.11,40.09,10.11a100.75,100.75,0,0,0,12.34-.71c-12.64,11.43-19.3,25.94-19.3,42.09a47.78,47.78,0,0,0,9.32,29,147.88,147.88,0,0,0-16.66,11.91,51.81,51.81,0,0,0-12.15-14.35c-11-9.14-25.11-13.78-41.75-13.78-3,0-6,.1-8.66.26a65.58,65.58,0,0,0-8.88,1.13l8.45-38.2c.12-.56.21-1.11.31-1.69a127.3,127.3,0,0,0,1-9.79,51.15,51.15,0,0,0-.59-7.86Zm167.84,76.06a68.73,68.73,0,0,0,10.23-10.27l-4.85,21.94a40.18,40.18,0,0,0-5.38-11.67Z" transform="translate(-4580.65 -672.82)"/><path class="cls-3" d="M4953,1221.56s.06,0,.09-.08l-.09.47Zm6.42-4.68a33.29,33.29,0,0,1,5.65-3.14,32.78,32.78,0,0,1,6.82-1.54,57.57,57.57,0,0,1,7.21-.4h13.28q12.06,0,19.67-6t9.94-17l9.35-43.67q3.54-16,8.78-22.63a17.25,17.25,0,0,1,14.24-6.64,10.32,10.32,0,0,1,7.6,2.93,10.86,10.86,0,0,1,2.92,8,34.83,34.83,0,0,1-.2,3.48c-.12,1.34-.32,2.75-.56,4.31l-9.38,40.94a24.2,24.2,0,0,0-.58,3.71c-.13,1.41-.2,2.78-.2,4.09q0,14.42,10.53,23.19t26.91,8.77c1.8,0,3.7-.06,5.65-.17a35.48,35.48,0,0,0,6.05-1,67.83,67.83,0,0,0,17-4.66,76.46,76.46,0,0,0,16.17-9.37c.79-.52,1.5-1,2.15-1.55s1.36-1,2.13-1.57a68.61,68.61,0,0,0,10.55-11.31c2.59-3.64,3.9-6.76,3.9-9.35a6.71,6.71,0,0,0-1.77-4.67,5.31,5.31,0,0,0-4.09-2,14.38,14.38,0,0,0-3.71.78,52.81,52.81,0,0,0-6,2.33,8.53,8.53,0,0,1-1.58.59,6.46,6.46,0,0,1-1.56.19,6.12,6.12,0,0,1-1.95.39h-1.56a12,12,0,0,1-8.56-3.31,11.12,11.12,0,0,1-3.52-8.44,35.84,35.84,0,0,1,.59-5.45c.38-2.35.84-4.84,1.36-7.44l7.33-34.16-150.82-14.48-26,120.79C4955.37,1219.7,4957.49,1218.14,4959.41,1216.88Zm596.26-63.05c-13.54-14.67-32.06-29.45-60.61-6.95-7.79,6.14-23.37,19.9-38.08,24.52a17.21,17.21,0,0,0-2.74,1.1,27.69,27.69,0,0,1-3.18.69,6.58,6.58,0,0,1-2.14.39h-1.75a12.21,12.21,0,0,1-8.38-2.92,9.64,9.64,0,0,1-3.33-7.61,18.69,18.69,0,0,1,.21-2.89,17,17,0,0,0,.18-2.56,4,4,0,0,1,.21-1.35,4.76,4.76,0,0,0,.21-1.38l26.64-120.08c-14.29,26.4-41.31,48.43-76.67,64.14L5370,1173.19a19.23,19.23,0,0,0-.59,2.35,15.38,15.38,0,0,0-.2,2.33,8.34,8.34,0,0,0-.36,2.54V1183c0,9.62,3.42,17.41,10.32,23.38s15.66,9,26.32,9c2.34,0,4.68-.14,7-.36s4.79-.67,7.39-1.2a65.43,65.43,0,0,0,16-4.86c27.62-13.09,47.1-43,63.28-45.69,23-3.87,20.37,17.1,12.37,26.67s-30.7,51.34-132.77,49.37-271.49-18.56-345.88-15.32-117.14,2.3-165.31,30.31-52.81,51.07-52.39,75,21.21,66.68,77.34,70.54c58.72,4,96.05-11.57,102.57-14.48,11.28-5.06,17.83-14.54,13.61-21.72-4.65-7.94-13.47-5.12-22.41-3.34s-27.25.2-31.3-11.63c-3.82-11.14,12.11-32,45.3-42.72,35-11.28,190.81-6,224.83-4.22,30.53,1.61,136.69,6.26,195.54,4.53,56.68-1.66,104.49-16.77,133.81-52.41S5569.17,1168.43,5555.67,1153.83Zm-836.73,41a121.52,121.52,0,0,0,9.18,15,100.44,100.44,0,0,0,38.59,31.36q22.57,10.33,54.18,10.35,55,0,95.34-35.89t40.36-85c0-12.39-2.91-23.11-8.59-32.23-44.8-1.61-86.77,4.17-122.61,15.68a9.55,9.55,0,0,0,1.36,1.71,9,9,0,0,0,6.63,2.74,14.41,14.41,0,0,0,2.92-.38c1.16-.24,2.55-.53,4.1-.78a11.14,11.14,0,0,0,2.15-.2,10.21,10.21,0,0,1,1.74-.17,3.68,3.68,0,0,1,1.76-.41h2.14a21.65,21.65,0,0,1,15,5.44,17.27,17.27,0,0,1,6,13.28q0,12.09-10.15,20.65t-24.55,8.6q-17.52,0-27.87-11.71c-6.2-7-9.58-16.23-10.2-27.62C4759.44,1142.22,4731.86,1166.19,4718.94,1194.87Zm544.73-19.33a14.21,14.21,0,0,0-.21,2.33,8.34,8.34,0,0,0-.38,2.54V1183q0,14.43,10.33,23.38t26.31,9c2.33,0,4.67-.14,7-.36s4.8-.67,7.41-1.2a79,79,0,0,0,16-4.86,89.33,89.33,0,0,0,14.82-8c1.28-1,2.53-2,3.71-2.91a36.83,36.83,0,0,0,3.31-2.91,47.8,47.8,0,0,0,9-10,20.6,20.6,0,0,0,3.51-8.77v-.39a7.1,7.1,0,0,0-1.94-4.88,5.15,5.15,0,0,0-4.7-1.75,12.84,12.84,0,0,0-3.5.78c-1.54.51-3.38,1.16-5.43,2-.54.25-1.14.52-1.77.77a4.86,4.86,0,0,1-1.77.39,6.47,6.47,0,0,1-2.12.39h-1.77a12.21,12.21,0,0,1-8.38-2.92,9.67,9.67,0,0,1-3.32-7.61,18.69,18.69,0,0,1,.21-2.89,22.1,22.1,0,0,0,.18-2.56,3.72,3.72,0,0,1,.21-1.35,4.21,4.21,0,0,0,.17-1.38l8.92-40.13a357,357,0,0,1-64.46,9.56l-10.72,48.89A15,15,0,0,0,5263.67,1175.54Zm-104.55-.6a6.35,6.35,0,0,1-.59,1.77,33.4,33.4,0,0,1-.19,3.7,30.06,30.06,0,0,0-.2,3.31q0,14.05,10.34,22.81t26.33,8.77a60.51,60.51,0,0,0,13.24-1.56,114.82,114.82,0,0,0,14.43-4.27c2.87-1.31,5.79-2.75,8.77-4.29s5.92-3.26,8.77-5.08a37,37,0,0,0,5.48-4.09c1.55-1.41,3.12-2.8,4.67-4.08a45.29,45.29,0,0,0,6.24-8.59,16.72,16.72,0,0,0,2.34-7.8,6.64,6.64,0,0,0-1.76-4.88,5.28,5.28,0,0,0-3.71-1.76,14.87,14.87,0,0,0-4.1.79,54.19,54.19,0,0,0-6,2.34,12.56,12.56,0,0,1-2.14.77c-.93.26-1.77.51-2.54.78h-2.33a10.66,10.66,0,0,1-8.59-3.69q-3.12-3.71-3.12-10c0-.78.07-1.82.2-3.11s.32-2.6.58-3.91a8.25,8.25,0,0,0,.6-1.55,6.92,6.92,0,0,0,.18-1.56l5.42-25.39c-6.51-.32-13.05-.74-19.66-1.37l-40.82-3.94-11.61,54.08A8.7,8.7,0,0,1,5159.12,1174.94Z" transform="translate(-4580.65 -672.82)"/><path class="cls-4" d="M5291.94,991.11A97.6,97.6,0,0,1,5306.17,980a91.94,91.94,0,0,1,15.4-8,89.37,89.37,0,0,1,10.91-3.12,50.36,50.36,0,0,1,10.52-1.17q10.93,0,17.36,5.46a18,18,0,0,1,6.44,14.43v1.77a3.81,3.81,0,0,1-.39,1.74,10.48,10.48,0,0,1-.21,2.16A8.71,8.71,0,0,0,5366,995l-26.58,119.73a357,357,0,0,1-64.46,9.56l24-109.41a8.59,8.59,0,0,0,.58-1.55,7.54,7.54,0,0,0,.18-1.56,38.39,38.39,0,0,0,.6-4.28c.13-1.57.18-2.87.18-3.91,0-3.65-.56-6.3-1.76-8S5295.31,992.4,5291.94,991.11Zm112.53,4.49c1.18,1.69,1.77,4.34,1.77,8,0,1-.09,2.34-.22,3.91a36.44,36.44,0,0,1-.57,4.28,8.29,8.29,0,0,1-.18,1.56,8.74,8.74,0,0,1-.61,1.55l-18.42,84c35.36-15.71,62.38-37.74,76.67-64.14l8.82-39.78a8.21,8.21,0,0,1,.21-1.74,13.15,13.15,0,0,0,.19-2.16,4.08,4.08,0,0,0,.38-1.74V987.6a18.08,18.08,0,0,0-6.43-14.43q-6.43-5.45-17.36-5.46a50,50,0,0,0-10.51,1.17,89,89,0,0,0-10.92,3.12,90.8,90.8,0,0,0-15.4,8,97.68,97.68,0,0,0-14.24,11.11C5401,992.4,5403.29,993.9,5404.47,995.6ZM4948,1098.47a55,55,0,0,0-8.77-10.85q-17.34-16.57-45-16.58a60.59,60.59,0,0,0-6.82.38q-3.31.4-6.81.79a99.08,99.08,0,0,0-33.75,11.52q-15.78,8.76-20.86,18.51a12.8,12.8,0,0,0-1.56,3.7,17.48,17.48,0,0,0-.39,3.32,8.92,8.92,0,0,0,1.38,4.89C4861.23,1102.64,4903.2,1096.86,4948,1098.47Zm-236.67-32.31a99.29,99.29,0,0,1-41.73,9.57h-1.14q-28.1,0-45.83-16.77t-17.75-43.3q0-31.95,25.95-54.57t62.56-22.61c3.64,0,7.21.13,10.74.37s6.94.66,10.31,1.19a124.81,124.81,0,0,1,21.07,5.27q10.89,3.69,24.58,9.92a18.8,18.8,0,0,0,2.91,1.56c.65.27,1.23.52,1.77.79a22.41,22.41,0,0,1,4.67,2.15c2.06,1.17,7,3.69,14.81,7.6l12.08,5.84,11.71,6.26c.5.25,1.62.78,3.3,1.54s3.84,1.83,6.45,3.12q19.48-8.19,34.89-13.06a177.36,177.36,0,0,1,30.22-6.82,114.87,114.87,0,0,1,13.64-1.57q7-.39,14.44-.39,35.85,0,57.3,13.64t21.46,36.68q0,21-17.75,35.68t-43.08,14.6q-16.4,0-36.47-6.23T4842.33,1036a129.91,129.91,0,0,0-32.74,37.63q-12.09,21.26-13.26,43.86v3.91c0,1.34.07,2.65.14,4-37,16.92-64.61,40.89-77.53,69.57a116.69,116.69,0,0,1-13.06-54q0-33.91,17.15-66.86t50.31-62.59q-9-2.32-15.41-3.49a113.44,113.44,0,0,0-12.68-1.58,30.64,30.64,0,0,0-4.67-.38h-5.07q-17.17,0-27.09,5.85c-6.64,3.88-9.95,9.24-9.95,16v1.56a14.63,14.63,0,0,0,3.31,6.43,8.85,8.85,0,0,0,5.26,3.3h1.18l14.81-1.16h.78a7.29,7.29,0,0,1,4.68,2.72,8.31,8.31,0,0,1,1.95,5.46Q4730.44,1057,4711.33,1066.16Zm165.72-54.78a250.8,250.8,0,0,0,24.75,9,71.6,71.6,0,0,0,15.41,2.72h2.34a16.66,16.66,0,0,0,10.15-2.9,8.76,8.76,0,0,0,3.89-7.21c0-3.4-1.57-6.12-4.68-8.2s-7.16-3.13-12.09-3.13c-2.09,0-4.1.08-6,.18s-3.84.35-5.67.61a77.79,77.79,0,0,0-11.69,2.73C4889.26,1006.44,4883.81,1008.53,4877.05,1011.38ZM4997.83,995a12,12,0,0,1,1.93,7,27.81,27.81,0,0,1-.58,4.68c-.4,2.08-.86,4.43-1.35,7l-18.74,87,150.82,14.48,2.42-11.23a7.71,7.71,0,0,0,.56-1.56,6.07,6.07,0,0,0,.22-1.57c.24-1.56.44-3.2.58-4.89s.19-3.45.19-5.27q0-13.7-9.92-21.92t-26.33-8.22q-3.9,0-7.23.21a42.57,42.57,0,0,0-6.8,1,57.79,57.79,0,0,0-15.4,6.27c-5.6,3.15-13.19,8-22.83,14.47l19.5-88.19a4.94,4.94,0,0,1,.19-1.16,4.29,4.29,0,0,0,.19-1.18,12.31,12.31,0,0,1,.21-2.33c.11-.78.2-1.3.2-1.57q0-9.72-6.06-15.19c-4-3.64-9.41-5.46-16.18-5.46a53.42,53.42,0,0,0-10.71,1.15,112.75,112.75,0,0,0-11.5,3.11,81.08,81.08,0,0,0-16,7.44,84.08,84.08,0,0,0-14.42,10.91Q4995.84,992.3,4997.83,995Zm212.57,53.41a47.93,47.93,0,0,0,30.79-10.52q13.28-10.51,13.27-23.8,0-11.69-8.18-18.89c-5.47-4.81-12.73-7.23-21.85-7.23a43.13,43.13,0,0,0-29,10.55q-12.32,10.53-12.3,25a23.3,23.3,0,0,0,7.61,17.93Q5198.31,1048.42,5210.4,1048.42Zm-38,41.15a13.69,13.69,0,0,1,2.15,7.59,44.65,44.65,0,0,1-.39,5.66c-.26,2-.66,4.24-1.17,6.83l-2,9.46,40.82,3.94c6.61.63,13.15,1,19.66,1.37l7.83-36.64a10.47,10.47,0,0,0,.78-4v-4.1q-.37-8.61-6.21-13.47c-3.93-3.23-9.25-4.86-16-4.86a63.27,63.27,0,0,0-25.15,5.64,111.3,111.3,0,0,0-26.69,17A17.4,17.4,0,0,1,5172.38,1089.57Z" transform="translate(-4580.65 -672.82)"/><path class="cls-5" d="M5309.12,961.2l0-.28,0,.05Z" transform="translate(-4580.65 -672.82)"/><path class="cls-6" d="M5415.71,880.91c0,.77,0,1.51-.11,2.23A288.45,288.45,0,0,1,5376.74,897v0a10.92,10.92,0,0,1,.13-1.55c.08-.55.18-1.24.35-2a43.61,43.61,0,0,0-7.59,5.55,363,363,0,0,1-49,8.77l3.34-15.51c.16-.63.25-1.27.35-1.93a17.11,17.11,0,0,0,.11-1.89,5.61,5.61,0,0,0,.26-1.69v-1.9a10.4,10.4,0,0,0-.6-3.84,6.35,6.35,0,0,0-2.29-2.6,10.55,10.55,0,0,0-1-.86l-1.18-.83a58.63,58.63,0,0,1,8.11-5.85,62.74,62.74,0,0,1,9.31-4.66,59.74,59.74,0,0,1,7.55-2.28,30.72,30.72,0,0,1,6.8-.82c4.15,0,7.43,1,9.92,3a10,10,0,0,1,3.7,8.23v1a17.23,17.23,0,0,1-.23,2.51c-.18,1-.42,2.73-.74,5.13q5.28-5,7.54-7.07c1.52-1.34,2.83-2.49,3.95-3.45a.75.75,0,0,0,.48-.24,8.17,8.17,0,0,1,.95-.84c.31-.24.74-.5,1.19-.84a45.52,45.52,0,0,1,5.26-3.09,27.16,27.16,0,0,1,5.74-2.15,39.13,39.13,0,0,1,4.54-1.1,25.74,25.74,0,0,1,4.06-.34c5.41,0,9.76,1.59,13,4.77A16.63,16.63,0,0,1,5415.71,880.91Zm-302.1-11.43c-5.81-4.64-13.28-7-22.34-7a64.41,64.41,0,0,0-44.33,17,65.44,65.44,0,0,0-8.94,9.79l37.53,3.59a21.87,21.87,0,0,1,3.3-5c2.55-2.88,5.36-4.32,8.39-4.32a4.54,4.54,0,0,1,3.56,1.57,5.47,5.47,0,0,1,1.43,3.93,6.68,6.68,0,0,1-2.56,5.22l30.6,3a23.23,23.23,0,0,0,2.08-9.75A22,22,0,0,0,5113.61,869.48Zm71.93,23.87a6.55,6.55,0,0,0-1.56-.71c0-.17-.07-.25-.23-.25a20.21,20.21,0,0,1-3.71-3.7,6,6,0,0,1-1.3-3.46,3.3,3.3,0,0,1,1.41-2.75,5.47,5.47,0,0,1,3.36-1.08,7.79,7.79,0,0,1,4.07,1.32,31,31,0,0,1,5.25,4.42c2.38,2.07,4.39,3.68,6,4.89a12.3,12.3,0,0,0,4.78,2.28,9.54,9.54,0,0,0,1.55.36,11.23,11.23,0,0,0,9.79-3.47,11.4,11.4,0,0,0,3.46-8.12q0-8.61-10.51-14.33T5181.83,863q-15.77,0-27.13,8.6t-11.33,20.78a25.33,25.33,0,0,0,.92,7.14l59.95,5.76a50.67,50.67,0,0,0-9.73-6.92C5189.4,895.51,5186.41,893.82,5185.54,893.35Zm112.54,16.19a429.38,429.38,0,0,1-64.25-1.41l-15.53-1.49c2.61-10,8.35-19,17.35-27.11a64.46,64.46,0,0,1,44.33-17c9.09,0,16.52,2.32,22.34,7a22,22,0,0,1,8.74,18C5311.06,896.08,5306.7,903.42,5298.08,909.54Zm-17.15-20.49a5.56,5.56,0,0,0-1.44-3.93,4.56,4.56,0,0,0-3.57-1.57c-3,0-5.82,1.44-8.37,4.32s-4.44,6.84-5.73,11.93c6.53-.95,11.36-2.31,14.45-4.07S5280.93,891.75,5280.93,889.05Zm-441-8.64a136.66,136.66,0,0,0-27.64-4.65,24.91,24.91,0,0,0-4-.33h-4q-19.59,0-32.78,11.42T4758.36,915a36.44,36.44,0,0,0,4.14,17.39c27.3-20.07,63.87-35.06,106-43.19C4856.77,885.27,4847.24,882.35,4840,880.41Zm636.42-37.95A4.4,4.4,0,0,0,5475,839a6.09,6.09,0,0,0-4.32-1.55q-3.81,0-11.21,4.54a158.2,158.2,0,0,0-18.89,14.33c-7.32,6.21-12.39,10.72-15.16,13.51s-4.5,5.22-5.15,7.28a7.57,7.57,0,0,1-.11,1.32,5.76,5.76,0,0,0-.14,1.3,10.37,10.37,0,0,0,.11,1.42C5442.69,870.64,5461.79,857.56,5476.4,842.46Zm-446-53.34q-9.84-21.33-31.34-39,9.32-9.32,17.52-13.83t14.94-4.49a14.22,14.22,0,0,1,7.22,1.76c2,1.2,3.17,2.53,3.38,4,.21,4.5.81,7.35,1.78,8.51s3.25,1.78,6.9,1.78a20.65,20.65,0,0,0,15.6-7.07,23.75,23.75,0,0,0,6.59-16.7c0-7.53-3-13.89-8.85-19.14s-13.24-7.87-22-7.87a81.76,81.76,0,0,0-21.69,2.88,85.08,85.08,0,0,0-20.73,9,103.6,103.6,0,0,0-14.79,10.26q-7.41,6.12-15.09,13.84c-1.51-.65-3.07-1.29-4.68-1.95a42.71,42.71,0,0,0-4.65-1.59,142.82,142.82,0,0,0-23.3-6.27,138.36,138.36,0,0,0-24.24-2.09q-48.57,0-83.43,27.8t-34.89,67q0,23.14,14.8,37.77t37.6,14.61a33.3,33.3,0,0,0,3.38-.15c1.18-.1,2.4-.15,3.69-.15a71.54,71.54,0,0,0,28.14-9q13-7.37,15.25-15.75a6.24,6.24,0,0,0,.49-1.44,10.36,10.36,0,0,0,.16-1.76c0-2.35-.71-4-2.09-5s-3.71-1.54-6.9-1.76c-4.95-.22-8.74-1.4-11.42-3.54s-4-5.25-4-9.31q0-12.22,11.11-20.89t26.83-8.68h3.86c1.7.22,3.58.48,5.63.8s4.43.8,7.21,1.44c-.86,1.51-1.6,3-2.24,4.34s-1.3,2.74-1.94,4a12.09,12.09,0,0,0-1.11,2.08c-.33.75-.6,1.44-.82,2.09-1.49,3.42-3.15,7.4-5,11.88s-4.11,10.51-6.9,18c-4.07,10.75-7.4,19.25-10,25.56s-4.92,11.64-7,15.92a41.55,41.55,0,0,1-2.1,4.17c-.77,1.3-1.56,2.58-2.42,3.87-.15.26-.34.54-.49.81,12.48-1.71,25.35-2.83,38.53-3.34q2.22-5,4.72-10.65t5.78-13.51c5.34-13.49,8.52-21.52,9.48-24.11s1.56-4.07,1.76-4.49a1.46,1.46,0,0,1,.17-.64l.48-1c.86-2.11,1.59-3.94,2.25-5.43s1.29-2.92,1.92-4.19a8.89,8.89,0,0,1,.66-1.13,4.13,4.13,0,0,1,.63-.8,33.36,33.36,0,0,1,2.26-4.36c.84-1.38,1.82-3,2.87-5a53.14,53.14,0,0,1,14.48,18.33,52.3,52.3,0,0,1,4.82,22.48,65.55,65.55,0,0,1-9.48,34.93c5,.31,10.1.68,15.2,1.17l45.56,4.37q9.76-22.2,9.77-50.11T5030.42,789.12Z" transform="translate(-4580.65 -672.82)"/><path class="cls-7" d="M5144.29,899.53l59.95,5.76a33.52,33.52,0,0,1,4,4.32,22.6,22.6,0,0,1,4.66,13.86q0,15.25-13.16,24.85t-33.92,9.55q-16.76,0-27.49-6.57t-10.74-17.09a15.51,15.51,0,0,1,4.17-11.1,13.72,13.72,0,0,1,10.39-4.43,25.3,25.3,0,0,1,3.82.25,12.89,12.89,0,0,1,3.35,1,20.21,20.21,0,0,1,5.5,3.93c1.92,1.85,4.37,4.33,7.41,7.55a8.77,8.77,0,0,0,1.56,1.65c.57.49,1.15,1,1.79,1.46a18.14,18.14,0,0,0,4.2,2.49,9.56,9.56,0,0,0,3.67.84,5.26,5.26,0,0,0,3.61-1.56,4.69,4.69,0,0,0,1.67-3.46v-1.31a2.52,2.52,0,0,0-.25-1.08,11.53,11.53,0,0,0-3.47-3.46q-2.75-2-10.15-6.82a127.11,127.11,0,0,1-10.87-7.64,39.66,39.66,0,0,1-6.58-6.45,21.93,21.93,0,0,1-3.11-6.34S5144.3,899.58,5144.29,899.53Zm89.54,8.6-15.53-1.49a50.41,50.41,0,0,0-1.65,12.67q0,17.49,11.6,28.25T5258,958.34a60.6,60.6,0,0,0,21.87-4.17,85.15,85.15,0,0,0,21.39-12.31,54.65,54.65,0,0,0,9.56-9.55c2.22-3,3.35-5.83,3.35-8.36a5.31,5.31,0,0,0-1.56-4.07,5.61,5.61,0,0,0-4-1.44h-.94a2.12,2.12,0,0,0-.95.24c-.65.16-1.27.36-1.93.59s-1.28.53-1.9.84c-4.32,2.73-7,4.35-8,4.89s-1.71.93-2,1.08a1.82,1.82,0,0,1-.48.36,6.91,6.91,0,0,1-.71.37c-1,.47-1.91.91-2.86,1.32s-1.93.75-2.87,1.06a39.39,39.39,0,0,1-7.66,2.51,32.24,32.24,0,0,1-6.67.84,13.64,13.64,0,0,1-8.74-2.76,8.86,8.86,0,0,1-3.46-7.31v-1.18q22.69-1.21,37.15-10.68c.55-.35,1-.71,1.5-1.07A429.38,429.38,0,0,1,5233.83,908.13ZM5381,904.94a15.17,15.17,0,0,0,9.81,3.47q9.78,0,17.31-8.24a27.55,27.55,0,0,0,7.44-17A288.45,288.45,0,0,1,5376.74,897Q5376.76,901.47,5381,904.94Zm-71.88,56a35.63,35.63,0,0,1,4-2.69,27.41,27.41,0,0,1,3.82-1.8,13.48,13.48,0,0,1,3.58-.95,32.39,32.39,0,0,1,4.08-.25H5334a16.56,16.56,0,0,0,11.71-4.42q4.8-4.39,6.7-12.77l2.15-9.8q3.09-13.38,8.35-21.52a38.58,38.58,0,0,1,6.75-7.82,363,363,0,0,1-49,8.77Zm150.27-48c.62-2.71,1.18-5.06,1.66-7.05s.79-3.46.95-4.41c1-4.64,1.59-7.57,1.93-8.85s.57-2.23.7-2.87a2.7,2.7,0,0,1,.12-.84c.08-.24.21-.59.37-1.06h12.42c4,0,6.92-1.42,8.85-4.2s2.87-7,2.87-12.78a5.76,5.76,0,0,0-1.81-4.66,8,8,0,0,0-5.37-1.56h-11.48c.17-.95.45-2.27.84-3.94s.86-3.38,1.32-5.14a15.06,15.06,0,0,0,.48-1.55c.16-.56.31-1.07.49-1.55.16-.64.36-1.27.58-1.92s.45-1.19.61-1.68a32.67,32.67,0,0,0,1.07-3.33,12.11,12.11,0,0,0,.37-2.65c0-.15,0-.29,0-.45-14.61,15.1-33.71,28.18-56.31,38.68a6.82,6.82,0,0,0,1.93,4.33c1.36,1.27,3.47,2.06,6.34,2.4a7.89,7.89,0,0,0-.36,1.41,7.78,7.78,0,0,0-.12,1.44c-.17.81-.35,1.52-.47,2.16s-.33,1.26-.48,1.9c-.49,1.44-.93,2.87-1.31,4.31s-.93,3.19-1.56,5.26q-4.06,12.18-5.39,16.95a64.5,64.5,0,0,0-1.78,8.14v3.81a21,21,0,0,0,8.11,17c5.41,4.48,12.2,6.7,20.32,6.7,1.09,0,2.19,0,3.22-.12s2.12-.21,3.25-.36a53.43,53.43,0,0,0,12.4-3,46.46,46.46,0,0,0,11.25-5.85,7.69,7.69,0,0,0,1.65-1.07c.49-.38,1-.76,1.44-1.08a33,33,0,0,0,6.81-6.8,10.48,10.48,0,0,0,2.28-5.86,3.92,3.92,0,0,0-1.09-3,3.59,3.59,0,0,0-2.74-1.07,11.2,11.2,0,0,0-2.39.33,27,27,0,0,0-3.1,1.08,50.69,50.69,0,0,1-5.37,1.81,16.54,16.54,0,0,1-4.19.59c-3.51,0-6.16-.87-8-2.62a9.44,9.44,0,0,1-2.75-7.17,35.64,35.64,0,0,1,.34-4.66A48.85,48.85,0,0,1,5459.43,913Zm-371.86-17.22q-4.66,2.64-14.45,4.07a35.81,35.81,0,0,1,2.41-6.89L5038,889.32a49.13,49.13,0,0,0-10.05,30q0,17.49,11.59,28.25t29.75,10.78a60.53,60.53,0,0,0,21.85-4.17,84.74,84.74,0,0,0,21.41-12.31,54,54,0,0,0,9.53-9.55c2.24-3,3.35-5.83,3.35-8.36a5.23,5.23,0,0,0-1.55-4.07,5.58,5.58,0,0,0-3.93-1.44h-1a2.27,2.27,0,0,0-1,.24c-.63.16-1.27.36-1.92.59s-1.26.53-1.91.84c-4.29,2.73-7,4.35-8,4.89s-1.74.93-2.07,1.08a1.52,1.52,0,0,1-.47.36c-.15.09-.39.22-.7.37q-1.45.71-2.88,1.32c-1,.37-1.91.75-2.86,1.06a39.66,39.66,0,0,1-7.64,2.51,32.65,32.65,0,0,1-6.69.84,13.59,13.59,0,0,1-8.73-2.76,8.84,8.84,0,0,1-3.47-7.31v-1.18q22.7-1.21,37.16-10.68,9-5.9,12.37-13.39l-30.6-3A12,12,0,0,1,5087.57,895.73Zm-102.7-11.52,45.56,4.37a103.25,103.25,0,0,1-17.38,27.2q-27.17,30.68-68,30.69c-2.38,0-4.62-.07-6.75-.16s-4.28-.27-6.44-.49a95.73,95.73,0,0,1-14.94-3.38q-7.87-2.38-21-7.55a34.9,34.9,0,0,0-3.71-1.44c-1.61-.54-3.49-1.23-5.64-2.09a113.73,113.73,0,0,1-32.76,19.6,104.72,104.72,0,0,1-37.28,6.42q-26.05,0-42.11-11.73a39.34,39.34,0,0,1-11.92-13.31c27.3-20.07,63.87-35.06,106-43.19q6.78,2.25,14.54,4.92c1.08-1.48,2.11-3,3.05-4.5.81-1.22,1.53-2.46,2.25-3.68,12.48-1.71,25.35-2.83,38.53-3.34,0,.1-.08.18-.11.29-1.07,1.91-2.1,3.74-3.05,5.45s-2,3.43-3.05,5.14-2.15,3.43-3.21,5.14-2.24,3.43-3.55,5.14q5.15,1.63,8.52,2.43a58.49,58.49,0,0,0,6.27,1.12h3.54q18.94,0,32.93-17.69a65.51,65.51,0,0,0,4.51-6.53C4974.71,883.35,4979.77,883.72,4984.87,884.21Zm-124.31,34.3a60.42,60.42,0,0,0-5.62-2.42c-2-.75-4.14-1.44-6.29-2.09-4.29-1.29-8.4-2.41-12.36-3.38a42,42,0,0,0-8.85-1.45,12.41,12.41,0,0,0-8,2.89,8.89,8.89,0,0,0-3.53,7.08q0,4.5,4.51,7.88a17.14,17.14,0,0,0,10.6,3.37c1.49,0,2.93,0,4.33-.16a15.83,15.83,0,0,0,4-.79,36.34,36.34,0,0,0,9.31-3.54A132.39,132.39,0,0,0,4860.56,918.51Z" transform="translate(-4580.65 -672.82)"/><path class="cls-8" d="M5319.64,1163.05c.56,10.21,6.77,17.72,16.75,20.13,7.49,1.85,14-1,20.91-3.44,4.41-1.53,2.51-8.57-1.93-7-4.07,1.43-8.2,3.7-12.6,3.7-8.46,0-15.35-4.32-15.84-13.36-.26-4.67-7.56-4.69-7.29,0Z" transform="translate(-4580.65 -672.82)"/><path class="cls-9" d="M5323.65,1157.6" transform="translate(-4580.65 -672.82)"/><path class="cls-10" d="M5324.84,981.57c7.67-2.58,15.67-4.73,23.8-3.12a9.38,9.38,0,0,1,8,9.15c-.07.9,0,.81.3-.24a5,5,0,0,0-.7,2.23c0,6.36-2.29,12.93-3.67,19.11-1,4.59,6,6.54,7,1.94q1.48-6.64,3-13.31a39,39,0,0,0,1.35-9.73c0-21.58-27.8-17.52-41.06-13.05-4.43,1.49-2.52,8.53,1.94,7Z" transform="translate(-4580.65 -672.82)"/><path class="cls-8" d="M5425.35,1163.05c.89,18.4,19.5,24.07,34.52,18,4.32-1.72,2.45-8.78-1.93-7-9.4,3.79-24.61,3.36-25.32-11-.22-4.67-7.5-4.69-7.27,0Z" transform="translate(-4580.65 -672.82)"/><path class="cls-10" d="M5430.54,981.57c8.28-2.78,17.06-5.14,25.7-2.57a10,10,0,0,1,5.19,4.17c1.41,2.05.3,6.15,1.27,4.2a7.56,7.56,0,0,0-.71,3.74c0,6.77-2.91,14.2-4.37,20.78-1,4.57,6,6.52,7,1.94,1.85-8.33,5-19.37,5-25.63,0-22.05-27.14-18.34-41.07-13.65-4.42,1.49-2.53,8.53,1.94,7Z" transform="translate(-4580.65 -672.82)"/><path class="cls-11" d="M4872.63,1263c33.67-19.06,69.66-24.43,107.8-26.64,41.21-2.38,82.26-3.14,123.51-1.53,93.9,3.69,187.72,14.18,281.73,14.64,4.69,0,4.69-7.29,0-7.31-95.79-.45-191.43-11.07-287.12-14.83-42.72-1.67-85.39-.38-128.05,2.34-35.88,2.32-70,9.18-101.55,27-4.09,2.3-.41,8.6,3.68,6.28Z" transform="translate(-4580.65 -672.82)"/><path class="cls-12" d="M4839.1,1373.06c-4.69,0-4.69-7.28,0-7.28s4.69,7.28,0,7.28Zm151.49,3.12c-16.12,7-33.79,10.47-51.13,12.56-30,3.63-63.69,3.9-89.27-14.13-3.86-2.72-7.49,3.61-3.68,6.29,25.7,18.11,57.56,18,87.78,15.64,20.4-1.59,41.17-5.87,60-14.06,4.3-1.87.59-8.15-3.67-6.3Z" transform="translate(-4580.65 -672.82)"/><g class="cls-13"><path class="cls-14" d="M4945.3,1351.63c3.59,8.65,9.71,13.55,18.37,16.85,12,4.56,23,.74,35.1-.14,4.65-.34,4.69-7.63,0-7.29-15.44,1.13-38.47,7.85-46.43-11.36-1.78-4.27-8.83-2.4-7,1.94Z" transform="translate(-4580.65 -672.82)"/></g><path class="cls-15" d="M4998.27,1303.32c-4.7,0-4.7-7.28,0-7.28s4.7,7.28,0,7.28ZM5546.86,1247c-32.46,38.07-83,47.85-130.81,49.1-49.31,1.29-98.79-.74-148.05-2.71-39.69-1.57-79.29-3.62-119-4.36-45.9-.85-93.18-2.49-138.76,4.26-4.65.68-2.65,7.7,1.93,7,50.4-7.48,103-4.79,153.75-3.65,40.05.9,80,3.22,120.05,4.69,51.68,1.92,104.52,5.19,156.1.55,41.08-3.69,82.56-17.62,109.95-49.76,3-3.55-2.09-8.75-5.15-5.15Z" transform="translate(-4580.65 -672.82)"/><path class="cls-16" d="M5550.91,1161.87c-4.71,0-4.71-7.29,0-7.29s4.69,7.29,0,7.29Zm-52.63-4.59c13.17-10.67,26.23-16,41.13-5,3.8,2.78,7.43-3.56,3.69-6.3-17.72-13-34.21-6.58-50,6.19-3.67,3,1.54,8.08,5.16,5.16Z" transform="translate(-4580.65 -672.82)"/><path class="cls-14" d="M4627.08,1057.9c4.7,0,4.7-7.3,0-7.3s-4.71,7.3,0,7.3Z" transform="translate(-4580.65 -672.82)"/><path class="cls-14" d="M4706.7,1057.17c-20,9-44.12,12.12-64.66,3.06-4.25-1.88-8,4.38-3.69,6.29,23.23,10.24,49.32,7.14,72-3.06,4.29-1.92.57-8.19-3.67-6.29Z" transform="translate(-4580.65 -672.82)"/><path class="cls-17" d="M4694.32,1042.59c8.38,8.88,17.91,6.31,28.79,5.44-.86-.34-1.72-.71-2.57-1.06.12.13.25.24.39.37,3.41,3.22,8.58-1.92,5.15-5.16-3.21-3-10.56-.84-14.5-.52-1.31.11-2.62.24-3.95.24-1.85,0-5.63-1.8-8.15-4.47-3.25-3.43-8.39,1.75-5.16,5.16Z" transform="translate(-4580.65 -672.82)"/><path class="cls-18" d="M4775.93,1001.6c-23.31-5.91-50.37-10.33-72.65,1.44-4.15,2.2-.47,8.49,3.68,6.3,20.33-10.74,45.89-6.06,67-.71,4.57,1.16,6.5-5.87,1.94-7Z" transform="translate(-4580.65 -672.82)"/><path class="cls-19" d="M4731.92,1078.8c12.3-23,29.07-42.53,48.31-60,3.49-3.16-1.68-8.31-5.15-5.16-19.68,17.89-36.86,38-49.46,61.5-2.21,4.14,4.09,7.81,6.3,3.67Z" transform="translate(-4580.65 -672.82)"/><path class="cls-20" d="M4733.33,1210.88c-6.27,0-6.27-9.75,0-9.75s6.27,9.75,0,9.75Zm175.15-3.47c-44.47,38.21-119.31,48.27-163.77,4.45-4.46-4.4-11.35,2.47-6.89,6.87,48.43,47.71,129,37.23,177.53-4.45,4.77-4.08-2.14-10.94-6.87-6.87Z" transform="translate(-4580.65 -672.82)"/><path class="cls-21" d="M4851.81,1092.53c28.34-14.67,67.42-18.47,87.54,11.2,2.62,3.86,8.93.23,6.29-3.68-22.44-33.12-65.3-30.49-97.51-13.81-4.18,2.16-.5,8.45,3.68,6.29Z" transform="translate(-4580.65 -672.82)"/><path class="cls-9" d="M4841.29,1110.89" transform="translate(-4580.65 -672.82)"/><g class="cls-13"><path class="cls-22" d="M4787.87,1142.85c8.86,22.05,27.09,32.71,50.65,31.68,21.65-.94,39.52-17.76,40.85-39.15.29-4.71-7-4.67-7.29,0-1.08,17.3-14,27.62-29.93,31.38-20.54,4.83-39.71-7.12-47.25-25.85-1.72-4.32-8.77-2.43-7,1.94Z" transform="translate(-4580.65 -672.82)"/></g><path class="cls-23" d="M4838.92,1025.78c-27.58,21.83-52.69,54.74-52.69,91.66,0,4.7,7.27,4.7,7.27,0,0-35.1,24.47-65.87,50.58-86.5,3.68-2.91-1.51-8-5.16-5.16Z" transform="translate(-4580.65 -672.82)"/><path class="cls-24" d="M4966,1040.09c-21.29,16.33-46.21,14-70.69,6.83-4.52-1.33-6.44,5.71-1.94,7,26.18,7.65,53.59,9.89,76.31-7.55,3.67-2.81.06-9.15-3.68-6.29Z" transform="translate(-4580.65 -672.82)"/><path class="cls-10" d="M4855.6,980.73c33.65-10.26,75.94-14.78,107.37,3.78,4.06,2.4,7.72-3.91,3.68-6.3-33.85-20-78.12-15.16-113-4.52-4.48,1.38-2.57,8.41,1.94,7Z" transform="translate(-4580.65 -672.82)"/><g class="cls-25"><path class="cls-10" d="M4637.66,968.55c49-40.51,105.52-9.89,153.9,13.55,4.21,2.06,7.9-4.24,3.68-6.29-20.15-9.77-39.69-20.4-60.86-27.89-34.62-12.28-73.34-8.13-101.88,15.48-3.62,3,1.56,8.12,5.16,5.15Z" transform="translate(-4580.65 -672.82)"/></g><g class="cls-26"><path class="cls-27" d="M4899.09,1030.11a85.42,85.42,0,0,0,17.94,3.1c4.7.25,4.68-7,0-7.29a75.64,75.64,0,0,1-16-2.85c-4.54-1.25-6.47,5.79-1.94,7Z" transform="translate(-4580.65 -672.82)"/></g><path class="cls-28" d="M4934.34,996.22c-18.73-10.69-42.6-1.87-60.79,5.67-4.27,1.78-2.4,8.83,1.94,7,16.16-6.7,38.43-15.95,55.18-6.41,4.08,2.33,7.76-4,3.67-6.29Z" transform="translate(-4580.65 -672.82)"/><g class="cls-26"><path class="cls-27" d="M4917,1033.21c6.58,0,12.88-.82,18.38-4.72,3.81-2.69.17-9-3.67-6.29-4.51,3.19-9.32,3.72-14.71,3.72-4.69,0-4.69,7.29,0,7.29Z" transform="translate(-4580.65 -672.82)"/></g><path class="cls-8" d="M5214.32,1159.94c.38,11,5.72,20.38,16.85,23.24,7.7,2,13.74-1.33,20.84-3.77,4.41-1.53,2.51-8.57-1.94-7-4,1.41-8.21,4-12.59,4-10.13,0-15.54-6.7-15.87-16.47-.17-4.69-7.46-4.72-7.29,0Z" transform="translate(-4580.65 -672.82)"/><path class="cls-29" d="M5075,1126.81c-1.19-23.36-28.83-26.82-42.53-10.91-3.05,3.53,2.09,8.72,5.15,5.16,9.14-10.6,29.22-11.53,30.1,5.75.24,4.68,7.52,4.7,7.28,0Z" transform="translate(-4580.65 -672.82)"/><path class="cls-30" d="M5345,1187.71c3.31-3.33,8.46,1.82,5.15,5.16-21.87,22.07-80.31,32.93-84.22-9.92-.43-4.69,6.87-4.65,7.29,0,3.39,37.16,56.19,20.49,71.78,4.76Z" transform="translate(-4580.65 -672.82)"/><path class="cls-31" d="M5431.22,1199.87c-15.2,6.64-37.87,9.55-49.13-5.3-4-5.35-3.61-12.87-2.28-19,1-4.58-6-6.52-7-1.94-2,9.39-1.75,20.75,5.58,28,15.05,14.94,38.45,12.46,56.55,4.58,4.3-1.87.59-8.16-3.69-6.31Z" transform="translate(-4580.65 -672.82)"/><path class="cls-32" d="M5238.55,1188.64c-16.85,13.88-67.33,31.2-70.29-4.92-.38-4.65-7.67-4.68-7.28,0,3.55,43.29,60.4,28.48,82.71,10.08,3.64-3-1.55-8.12-5.14-5.16Z" transform="translate(-4580.65 -672.82)"/><path class="cls-32" d="M5012.12,1186.48c-5.21,20-25.41,14.08-40.95,15.63-4.63.45-4.68,7.76,0,7.28,7.95-.79,16-.24,23.93-.52,12.56-.42,21-8.74,24.06-20.45,1.18-4.56-5.84-6.49-7-1.94Z" transform="translate(-4580.65 -672.82)"/><path class="cls-32" d="M5130.8,1191.56c-17.25,11.51-64.62,27.18-66.74-8.22-.27-4.67-7.56-4.72-7.28,0,2.47,41.29,54.87,29.73,77.69,14.51,3.9-2.58.25-8.91-3.67-6.29Z" transform="translate(-4580.65 -672.82)"/><path class="cls-8" d="M5117.12,1178a23.78,23.78,0,0,0,16,6.14c6,0,10.73-2.67,16.32-4.26,4.51-1.27,2.58-8.31-2-7-9,2.56-16.81,7.21-25.21,0-3.53-3-8.72,2.08-5.15,5.16Z" transform="translate(-4580.65 -672.82)"/><path class="cls-33" d="M5073.19,1076.74c14-7.33,33.9-10.11,46.38,1.77,6.36,6.06,4,18.23,2.91,23.1-1,4.59,6,6.54,7,1.94,2.18-10.15,2.3-21-4.77-30.2-12.39-15.94-40.17-10.8-55.22-2.91-4.16,2.19-.48,8.48,3.67,6.3Z" transform="translate(-4580.65 -672.82)"/><path class="cls-10" d="M5016.42,984.45c9.47-4.35,21.07-8.33,31.61-6.52,8.68,1.47,7.8,10.31,6.43,16.56q-2.76,12.4-5.5,24.81c-1,4.58,6,6.54,7,1.94q2-8.9,3.94-17.83c1-4.73,3.23-10.73,2.89-15.67-1.8-26.28-34.51-16.74-50.08-9.59-4.26,2-.56,8.25,3.68,6.3Z" transform="translate(-4580.65 -672.82)"/><path class="cls-10" d="M5004.72,993c4.72,0,4.72-7.28,0-7.28s-4.69,7.28,0,7.28Z" transform="translate(-4580.65 -672.82)"/><path class="cls-34" d="M5235.32,1029.68c-9.93,7.45-26.74,13.32-37.64,4.39-3.61-3-8.8,2.18-5.16,5.16,13.51,11.06,33.51,6.48,46.48-3.25,3.72-2.79.08-9.13-3.68-6.3Z" transform="translate(-4580.65 -672.82)"/><path class="cls-10" d="M5202.19,1006c9.83-7.92,26.48-11.87,37.23-3.35,3.64,2.89,8.84-2.26,5.15-5.16-14.17-11.21-34.31-7.33-47.53,3.36-3.67,2.95,1.53,8.09,5.15,5.15Z" transform="translate(-4580.65 -672.82)"/><path class="cls-35" d="M5087.86,944.61c-13.86,4.87-29.63,5.78-41.34-4.36-3.53-3.07-8.71,2.06-5.15,5.15,13.73,11.87,31.89,12.06,48.42,6.23,4.4-1.55,2.52-8.6-1.93-7Z" transform="translate(-4580.65 -672.82)"/><path class="cls-36" d="M5068.93,935.85c7.94,5.49,16.53,5,25.56,2.73,9.51-2.41,16.36-8.46,25.08-12.2,2.87-1.23.39-5.42-2.45-4.19-14.29,6.11-29.74,20.48-45.75,9.48-2.58-1.78-5,2.43-2.44,4.18Z" transform="translate(-4580.65 -672.82)"/><path class="cls-37" d="M5102.49,902.05c-9.74,6.09-20.75,8.39-32.11,9.11-4.67.3-4.7,7.6,0,7.29,12.6-.8,25-3.33,35.78-10.11,4-2.49.32-8.81-3.67-6.29Z" transform="translate(-4580.65 -672.82)"/><path class="cls-37" d="M5293.65,902.05c-9.74,6.09-20.77,8.39-32.11,9.11-4.68.3-4.7,7.6,0,7.29,12.59-.8,25-3.33,35.78-10.11,4-2.49.32-8.81-3.67-6.29Z" transform="translate(-4580.65 -672.82)"/><path class="cls-38" d="M5053,886.08c14.27-12.1,38.24-21.36,55.35-9.43,2.58,1.8,5-2.42,2.45-4.2-19-13.22-45.38-3.26-61.24,10.2-2.4,2,1.05,5.44,3.44,3.43Z" transform="translate(-4580.65 -672.82)"/><path class="cls-35" d="M5342.52,935.64c-1,3.77-2.21,7.71-6.23,9.18-1.5.55-3.81.29-5.4.29a82.81,82.81,0,0,0-13.55.67c-4.64.74-2.67,7.77,1.93,7,4.79-.78,9.85-.43,14.7-.43,8.89,0,13.57-7,15.58-14.82,1.16-4.55-5.85-6.48-7-1.92Z" transform="translate(-4580.65 -672.82)"/><path class="cls-37" d="M5400.79,893.22a15.76,15.76,0,0,1-7.52,4.81,8.94,8.94,0,0,1-3.92.07,5.64,5.64,0,0,1-2.59-1.64c.07.51.11.65.09.39,0-4.7-7.28-4.7-7.28,0,0,4.86,5.62,8.37,10,8.64,6.49.39,12-2.51,16.37-7.12,3.27-3.39-1.89-8.53-5.15-5.15Z" transform="translate(-4580.65 -672.82)"/><path class="cls-39" d="M5377.63,882.33c6.27-5.53,18.7-14.37,26.92-7.49,2.36,2,5.84-1.42,3.43-3.43-10.68-8.95-25.22-.1-33.78,7.5-2.37,2.08,1.1,5.5,3.43,3.42Z" transform="translate(-4580.65 -672.82)"/><path class="cls-40" d="M5330.55,878.42c3.16-2,25.39-13.36,25.39-4.21,0,3.12,4.86,3.12,4.86,0,0-16.31-26-4.16-32.72,0-2.62,1.65-.2,5.87,2.47,4.19Z" transform="translate(-4580.65 -672.82)"/><path class="cls-41" d="M5464,849.61a27.65,27.65,0,0,1,6.31-3.17c3-.9,1.72-5.58-1.29-4.7a33.5,33.5,0,0,0-7.48,3.67c-2.67,1.63-.24,5.83,2.46,4.2Z" transform="translate(-4580.65 -672.82)"/><path class="cls-42" d="M5437,881.51l-4.59-.52a25.58,25.58,0,0,1-4.63-.64c-2.83-1.27-5.3,2.92-2.44,4.2,3.43,1.53,8,1.4,11.66,1.81,3.11.35,3.09-4.5,0-4.85Z" transform="translate(-4580.65 -672.82)"/><path class="cls-35" d="M5461,943.85c-9.92,3.39-21.19,4.95-30.05-1.79-3.75-2.84-7.37,3.5-3.67,6.3,10.28,7.8,24.07,6.47,35.64,2.52,4.42-1.51,2.53-8.57-1.92-7Z" transform="translate(-4580.65 -672.82)"/><path class="cls-43" d="M5451,920.58c.28,11.42,7.56,18.48,17.48,18.72,2.8.06,2.8-4.8,0-4.87-7.55-.18-12.94-5.11-13.17-13.85a2.16,2.16,0,1,0-4.31,0Z" transform="translate(-4580.65 -672.82)"/><path class="cls-42" d="M5477.58,880.57h-12.42c-3.13,0-3.13,4.86,0,4.86h12.42c3.14,0,3.14-4.86,0-4.86Z" transform="translate(-4580.65 -672.82)"/><path class="cls-44" d="M5470.64,873.58c4.07,0,8.13-.14,12.17,0,3.13.13,3.12-4.72,0-4.85-4-.17-8.1,0-12.17,0-3.11,0-3.11,4.87,0,4.87Z" transform="translate(-4580.65 -672.82)"/><path class="cls-45" d="M5138.21,927.65c3.19-3.1,7.56-1.69,10.41.93,2.3,2.13,5.75-1.3,3.44-3.43s-4.46-3.55-7.65-3.94a11.16,11.16,0,0,0-9.62,3c-2.27,2.19,1.17,5.62,3.42,3.44Z" transform="translate(-4580.65 -672.82)"/><path class="cls-46" d="M5179.78,935.58c-1.84,4-6.42,4.33-10,2.91-2.92-1.14-4.88,3.31-2,4.45s5.45,1.7,8.55.89a11.15,11.15,0,0,0,7.9-6.3c1.29-2.86-3.15-4.81-4.45-1.95Z" transform="translate(-4580.65 -672.82)"/><path class="cls-35" d="M5194.1,939.93c-14.14,9.47-35.48,11-50.53,2.7-4.13-2.28-7.8,4-3.69,6.29,17.28,9.51,41.55,8.26,57.9-2.7,3.88-2.59.25-8.92-3.68-6.29Z" transform="translate(-4580.65 -672.82)"/><path class="cls-47" d="M5159.84,878.87c12.64-8.85,30-9.14,43.71-2.35,2.8,1.39,5.27-2.81,2.45-4.18-15.18-7.53-34.51-7.53-48.6,2.33-2.57,1.79-.13,6,2.44,4.2Z" transform="translate(-4580.65 -672.82)"/><path class="cls-10" d="M4847.58,748.65c36.5-21.17,80.05-22.13,118.72-6.13,4.34,1.79,6.21-5.26,1.93-7-40.4-16.74-86.27-15.22-124.35,6.87-4.06,2.36-.38,8.66,3.7,6.29Z" transform="translate(-4580.65 -672.82)"/><path class="cls-10" d="M4836.82,754.43c4.7,0,4.7-7.29,0-7.29s-4.7,7.29,0,7.29Z" transform="translate(-4580.65 -672.82)"/><path class="cls-48" d="M4877.22,850.27c-19.45,10.18-43.53,12-60.63-3.71-3.44-3.17-8.63,2-5.15,5.15,19.62,18,46.92,16.65,69.45,4.85,4.16-2.18.47-8.48-3.67-6.29Z" transform="translate(-4580.65 -672.82)"/><path class="cls-9" d="M4891.65,840.52" transform="translate(-4580.65 -672.82)"/><g class="cls-13"><path class="cls-10" d="M4871.85,838c4.86,3.74,10.85,5.12,16.87,5.46,4.7.26,4.67-7,0-7.28a23.13,23.13,0,0,1-13.18-4.46c-1.59-1.22-4.09-.25-5,1.3-1.11,1.88-.27,3.78,1.3,5Z" transform="translate(-4580.65 -672.82)"/></g><path class="cls-49" d="M4930.78,783.32c-18.18-4-36.14-3.49-51.78,8-3.75,2.75-.12,9.08,3.67,6.29,14.12-10.39,29.81-10.87,46.17-7.27,4.59,1,6.53-6,1.94-7Z" transform="translate(-4580.65 -672.82)"/><path class="cls-50" d="M4778.34,894.33c16.79-13.23,39.89-8.93,59-4.14,4.57,1.14,6.52-5.9,1.95-7-22.21-5.56-46.55-9.37-66.09,6-3.7,2.91,1.49,8,5.15,5.15Z" transform="translate(-4580.65 -672.82)"/><path class="cls-35" d="M4850.56,941.37c-25.05,8.65-62.63,11.38-79.19-13.91-2.56-3.91-8.88-.27-6.3,3.67,18.48,28.21,58.85,27.13,87.44,17.28,4.41-1.53,2.5-8.56-1.95-7Z" transform="translate(-4580.65 -672.82)"/><path class="cls-35" d="M5005.62,908.9c-31.7,34.11-70.64,30.33-110.39,14.89-4.39-1.7-6.26,5.35-1.93,7,20.66,8,39.33,14,61.73,12.32,22.09-1.68,41-13.17,55.74-29.08,3.2-3.45-1.94-8.6-5.15-5.16Z" transform="translate(-4580.65 -672.82)"/><path class="cls-10" d="M4992.39,757.68c12.06,10.08,22.2,21.74,29,36,2,4.24,8.3.54,6.29-3.68-7-14.77-17.64-27-30.12-37.46-3.58-3-8.76,2.12-5.16,5.14Z" transform="translate(-4580.65 -672.82)"/><path class="cls-51" d="M5043.81,724.76c-10.69-5.48-22-2.63-32.18,2.69-4.17,2.16-.48,8.46,3.67,6.28,7.67-4,16.63-6.88,24.84-2.69,4.17,2.14,7.86-4.14,3.67-6.28Z" transform="translate(-4580.65 -672.82)"/><path class="cls-10" d="M4991.61,726.81c13.48-10.52,67.6-38.76,71.27-2.74.48,4.62,7.77,4.66,7.29,0-4.46-43.74-64.12-17.7-83.71-2.41-3.7,2.9,1.5,8,5.15,5.15Z" transform="translate(-4580.65 -672.82)"/><path class="cls-9" d="M4949.19,813.13" transform="translate(-4580.65 -672.82)"/><path class="cls-49" d="M4983.35,821a65.5,65.5,0,0,0-16.77-21.3c-3.55-3-8.75,2.1-5.16,5.16a60.34,60.34,0,0,1,15.63,19.8c2.05,4.24,8.33.54,6.3-3.66Z" transform="translate(-4580.65 -672.82)"/><path class="cls-52" d="M4911,913.43c24.06,7.29,45,2.86,61.81-17.25,3-3.58-2.13-8.76-5.15-5.15-15.26,18.26-33.14,21.9-54.72,15.37-4.52-1.36-6.43,5.66-1.94,7Z" transform="translate(-4580.65 -672.82)"/><path class="cls-9" d="M4831,936.87" transform="translate(-4580.65 -672.82)"/><path class="cls-53" d="M4858.12,906.47c-17.41-6.13-49.88-15.67-52.36,12.67-.42,4.69,6.88,4.64,7.28,0,1.89-21.55,31.36-9.78,43.14-5.63,4.45,1.57,6.35-5.48,1.94-7Z" transform="translate(-4580.65 -672.82)"/><path class="cls-54" d="M4831,940.51c13.44-.25,24.14-6.14,35.06-13.5,3.88-2.62.23-9-3.68-6.29-9.75,6.56-19.31,12.29-31.38,12.51-4.7.09-4.71,7.38,0,7.28Z" transform="translate(-4580.65 -672.82)"/><path class="cls-35" d="M5276.56,944.61c-13.85,4.87-29.63,5.78-41.33-4.36-3.54-3.07-8.71,2.06-5.15,5.15,13.72,11.87,31.89,12.06,48.42,6.23,4.4-1.55,2.52-8.6-1.94-7Z" transform="translate(-4580.65 -672.82)"/><path class="cls-55" d="M5257.65,935.34c15.86,10.83,35.53-.23,49.69-9.1,2.65-1.66.22-5.86-2.46-4.19-12.65,7.94-30.52,18.84-44.78,9.08-2.6-1.75-5,2.46-2.45,4.21Z" transform="translate(-4580.65 -672.82)"/><path class="cls-56" d="M5241.69,886.08a63.11,63.11,0,0,1,23-12.74c12.48-3.8,35.58-4.25,37.42,14.13.31,3.09,5.17,3.12,4.86,0-3.47-34.76-52.15-18.82-68.76-4.82-2.39,2,1.05,5.44,3.44,3.43Z" transform="translate(-4580.65 -672.82)"/><path class="cls-9" d="M5253.15,907.63" transform="translate(-4580.65 -672.82)"/><path class="cls-57" d="M5196.2,1076.4c10.82-4.43,37.51-11.15,33.19,9.08-1,4.59,6,6.53,7,1.93,1.46-6.83,1-13.66-4.19-18.86-9.2-9.12-28-3.29-38,.83-4.28,1.75-2.41,8.81,1.95,7Z" transform="translate(-4580.65 -672.82)"/><path class="cls-2" d="M5004.16,1244.83l1.39,7.78-3.68.64,4.51,25.61,3.65-.65,1.38,7.84-19.57,3.44-1.38-7.83,3.71-.65-4.5-25.6-3.72.64-1.37-7.78Z" transform="translate(-4580.65 -672.82)"/><path class="cls-2" d="M5055.76,1274.32a24.57,24.57,0,0,1-17.39,9.91c-12.67,1-21.75-6.4-22.85-19.71-1.12-13.73,8.53-22.82,16.36-23.47,6-.49,8.94,2.64,9.53,3.3l1.1-3.45,9.37-.77,1.4,17-10.7.86c-.49-3.88-2.7-7.36-6.95-7s-6.66,5.9-6.13,12.42c.48,5.9,4,11,9.64,10.49,5-.4,8.52-6,9-6.62Z" transform="translate(-4580.65 -672.82)"/><path class="cls-2" d="M5098.27,1239.44l.13,13.23-10.36.11-.07-5.36-9.57.12.08,8.27,11.38-.11.08,8-11.38.12.1,9.76,9.58-.09-.05-5.57,10.36-.1.13,13.53-36.12.36-.09-8,3.79,0-.26-26-3.79,0-.07-7.92Z" transform="translate(-4580.65 -672.82)"/><path class="cls-2" d="M5164.07,1276.81a24.6,24.6,0,0,1-18.62,7.39c-12.68-.74-20.63-9.35-19.87-22.69.8-13.77,11.63-21.42,19.46-21,6,.34,8.49,3.85,9,4.6l1.57-3.27,9.39.54-1,17-10.71-.6c0-3.91-1.66-7.66-5.91-7.92s-7.42,4.92-7.81,11.44c-.32,5.93,2.41,11.43,8.08,11.75,5,.3,9.3-4.76,9.86-5.3Z" transform="translate(-4580.65 -672.82)"/><path class="cls-2" d="M5192.38,1244.17c13.87.83,16.26,6.51,15.81,13.33-.28,4.66-4.18,7.72-9.2,8.15,4.09.84,7.6,4.66,7.33,9-.17,2.56.12,4.08,1.17,4.13s1.43-.61,1.5-1.81l.12-2,4,.23-.21,3.3c-.29,5-2.67,9.45-9.31,9-7.84-.48-11.34-4.84-10.92-11.83.32-5.46-.24-6.8-5.57-7.12l-.58,9.27,3.66.21-.48,7.9-19.33-1.18.48-7.9,3.35.21,1.6-26.09-3.35-.2.47-7.85Zm-4.87,17.72,2.7.16c3.47.2,5.84-1.33,6-4.5.21-3.53-1.65-5.44-5.12-5.65l-3-.2Z" transform="translate(-4580.65 -672.82)"/><path class="cls-2" d="M5257.41,1248l-.76,13.21-10.36-.58.31-5.32-9.57-.56-.47,8.26,11.36.65-.45,8-11.36-.66-.55,9.76,9.56.54.32-5.56,10.35.59-.78,13.5-36.07-2,.46-8,3.77.22,1.48-26-3.78-.21.46-7.9Z" transform="translate(-4580.65 -672.82)"/><path class="cls-2" d="M5285.26,1291.38l.38-7.84,5.69.29-1.05-4.13-12.26-.62-1.47,4,4.67.24-.39,7.84-19-1,.38-7.84,4.07.21,9.39-25.85-2.44-.13.39-7.71,23,1.15,8.87,34.51,4.18.2-.4,7.85Zm3.17-19-3.3-13.12-4.54,12.72Z" transform="translate(-4580.65 -672.82)"/><path class="cls-2" d="M5358.62,1263c-.58,2.68-1.55,6.61-2,8l-7.08,23.08-12.51-.41-5.9-24.11a39.31,39.31,0,0,1-1-7.47h-.23l-.78,23.58,3.41.13-.26,7.72L5316,1293l.25-7.74,3.22.12.87-26.4-3.16-.1.25-7.72,22.69.73,5.32,22.6,6.48-22.2,22.81.76-.26,7.72-3.29-.11-.86,26.35,3.27.11-.25,7.78-18.92-.64.27-7.78,3.35.12.66-20,.11-3.54Z" transform="translate(-4580.65 -672.82)"/></g></g></svg>